<svg width="24" height="24" viewBox="0 0 24 24" fill="none" xmlns="http://www.w3.org/2000/svg">
<path d="M22.5005 5.24989V9.74989C22.5005 9.9488 22.4215 10.1396 22.2808 10.2802C22.1402 10.4209 21.9494 10.4999 21.7505 10.4999H17.2505C17.0516 10.4999 16.8608 10.4209 16.7202 10.2802C16.5795 10.1396 16.5005 9.9488 16.5005 9.74989C16.5005 9.55098 16.5795 9.36021 16.7202 9.21956C16.8608 9.07891 17.0516 8.99989 17.2505 8.99989H19.8192L17.3264 6.71614L17.303 6.69364C16.2606 5.6516 14.9342 4.93982 13.4896 4.64721C12.045 4.35461 10.5462 4.49416 9.1804 5.04842C7.81463 5.60268 6.64246 6.54709 5.81031 7.76367C4.97817 8.98024 4.52294 10.415 4.50149 11.8888C4.48005 13.3626 4.89334 14.8101 5.68974 16.0503C6.48615 17.2906 7.63035 18.2687 8.97941 18.8625C10.3285 19.4562 11.8226 19.6393 13.2751 19.3889C14.7276 19.1384 16.0741 18.4655 17.1464 17.4543C17.291 17.3175 17.484 17.2438 17.6829 17.2493C17.8819 17.2549 18.0705 17.3392 18.2072 17.4838C18.344 17.6284 18.4177 17.8214 18.4121 18.0203C18.4066 18.2192 18.3223 18.4078 18.1777 18.5446C16.5103 20.1259 14.2985 21.0051 12.0005 20.9999H11.8767C10.4028 20.9797 8.95628 20.5978 7.66446 19.8876C6.37265 19.1775 5.27504 18.1609 4.46811 16.9273C3.66118 15.6936 3.16964 14.2806 3.03668 12.8125C2.90373 11.3443 3.13343 9.86604 3.7056 8.50747C4.27777 7.14891 5.17489 5.95169 6.31811 5.02104C7.46133 4.09039 8.81566 3.4548 10.262 3.17013C11.7084 2.88547 13.2026 2.96044 14.6132 3.38847C16.0239 3.8165 17.3077 4.58447 18.3521 5.62489L21.0005 8.04364V5.24989C21.0005 5.05098 21.0795 4.86021 21.2202 4.71956C21.3608 4.57891 21.5516 4.49989 21.7505 4.49989C21.9494 4.49989 22.1402 4.57891 22.2808 4.71956C22.4215 4.86021 22.5005 5.05098 22.5005 5.24989Z" fill="black"/>
</svg>
