<svg preserveAspectRatio="none" width="100%" height="100%" overflow="visible" style="display: block;" viewBox="0 0 40 40" fill="none" xmlns="http://www.w3.org/2000/svg">
<g id="RocketLaunch">
<path id="Vector" d="M34.975 7.36288C34.938 6.75339 34.6792 6.17853 34.2474 5.74676C33.8156 5.31499 33.2408 5.05617 32.6313 5.01913C30.6656 4.90194 25.6422 5.08163 21.4735 9.24882L20.7313 10.0004H11.6172C11.2876 9.99853 10.961 10.0622 10.6563 10.1878C10.3516 10.3133 10.0748 10.4982 9.84221 10.7316L4.48283 16.0941C4.15416 16.4226 3.92353 16.8361 3.81682 17.2884C3.71011 17.7406 3.73155 18.2136 3.87873 18.6544C4.02591 19.0951 4.29301 19.4861 4.65005 19.7835C5.00709 20.0809 5.43994 20.2728 5.90002 20.3379L11.911 21.1769L18.8188 28.0848L19.6578 34.0988C19.7224 34.5589 19.9143 34.9918 20.2119 35.3486C20.5096 35.7053 20.9011 35.9717 21.3422 36.1176C21.5991 36.2034 21.8682 36.2472 22.1391 36.2473C22.4671 36.2479 22.7919 36.1836 23.095 36.0581C23.398 35.9326 23.6732 35.7483 23.9047 35.516L29.2672 30.1566C29.5007 29.924 29.6855 29.6473 29.8111 29.3426C29.9366 29.0378 30.0003 28.7112 29.9985 28.3816V19.2676L30.7438 18.5223C34.9125 14.3535 35.0922 9.33007 34.975 7.36288ZM11.6172 12.5004H18.2313L12.0547 18.6754L6.24846 17.866L11.6172 12.5004ZM23.2438 11.0238C24.4449 9.81528 25.8901 8.87695 27.4828 8.2715C29.0755 7.66605 30.7791 7.40742 32.4797 7.51288C32.5892 9.21441 32.3333 10.9197 31.7291 12.5141C31.1248 14.1085 30.1863 15.5551 28.9766 16.7566L19.9985 25.7316L14.2672 20.0004L23.2438 11.0238ZM27.4985 28.3816L22.1344 33.7504L21.3235 27.9426L27.4985 21.7676V28.3816ZM15.911 29.866C15.2078 31.4066 12.8563 35.0004 6.24846 35.0004C5.91694 35.0004 5.599 34.8687 5.36458 34.6343C5.13016 34.3998 4.99846 34.0819 4.99846 33.7504C4.99846 27.1426 8.59221 24.791 10.1328 24.0863C10.2822 24.0182 10.4435 23.9802 10.6076 23.9744C10.7717 23.9686 10.9353 23.9952 11.0891 24.0527C11.2429 24.1101 11.3839 24.1973 11.504 24.3093C11.6241 24.4212 11.721 24.5557 11.7891 24.7051C11.8572 24.8544 11.8952 25.0158 11.901 25.1799C11.9068 25.3439 11.8802 25.5075 11.8227 25.6613C11.7653 25.8151 11.6781 25.9561 11.5662 26.0762C11.4542 26.1963 11.3197 26.2932 11.1703 26.3613C10.1656 26.8191 7.94846 28.2926 7.55783 32.441C11.7063 32.0504 13.1828 29.8332 13.6375 28.8285C13.7056 28.6791 13.8025 28.5446 13.9226 28.4327C14.0427 28.3208 14.1837 28.2336 14.3375 28.1761C14.4913 28.1187 14.6549 28.0921 14.819 28.0978C14.9831 28.1036 15.1444 28.1416 15.2938 28.2098C15.4432 28.2779 15.5776 28.3748 15.6896 28.4949C15.8015 28.615 15.8887 28.7559 15.9462 28.9097C16.0036 29.0635 16.0302 29.2271 16.0245 29.3912C16.0187 29.5553 15.9806 29.7166 15.9125 29.866H15.911Z" fill="var(--fill-0, black)"/>
</g>
</svg>
