<svg preserveAspectRatio="none" width="100%" height="100%" overflow="visible" style="display: block;" viewBox="0 0 40 40" fill="none" xmlns="http://www.w3.org/2000/svg">
<g id="Cube">
<path id="Vector" d="M34.95 10.3368L21.2 2.81338C20.8326 2.61039 20.4197 2.50391 20 2.50391C19.5803 2.50391 19.1674 2.61039 18.8 2.81338L5.05 10.3399C4.65733 10.5548 4.32954 10.8711 4.10086 11.2559C3.87219 11.6407 3.75102 12.0798 3.75 12.5274V27.4712C3.75102 27.9188 3.87219 28.3579 4.10086 28.7427C4.32954 29.1275 4.65733 29.4438 5.05 29.6587L18.8 37.1853C19.1674 37.3883 19.5803 37.4947 20 37.4947C20.4197 37.4947 20.8326 37.3883 21.2 37.1853L34.95 29.6587C35.3427 29.4438 35.6705 29.1275 35.8991 28.7427C36.1278 28.3579 36.249 27.9188 36.25 27.4712V12.529C36.2498 12.0806 36.129 11.6405 35.9003 11.2548C35.6716 10.8691 35.3434 10.5521 34.95 10.3368ZM20 5.00088L32.5531 11.8759L20 18.7509L7.44687 11.8759L20 5.00088ZM6.25 14.0634L18.75 20.904V34.3087L6.25 27.4728V14.0634ZM21.25 34.3087V20.9103L33.75 14.0634V27.4665L21.25 34.3087Z" fill="var(--fill-0, black)"/>
</g>
</svg>
