<svg width="24" height="24" viewBox="0 0 24 24" fill="none" xmlns="http://www.w3.org/2000/svg">
<path d="M19.5002 12C19.4999 10.8226 19.2222 9.66174 18.6896 8.61165C18.157 7.56156 17.3844 6.65174 16.4346 5.95594L15.8496 2.73281C15.787 2.38702 15.605 2.07418 15.3353 1.84887C15.0656 1.62356 14.7254 1.50009 14.374 1.5H9.62646C9.27504 1.50009 8.93482 1.62356 8.66513 1.84887C8.39545 2.07418 8.21343 2.38702 8.15083 2.73281L7.56583 5.95594C6.61572 6.65151 5.84296 7.56128 5.31028 8.61141C4.7776 9.66156 4.5 10.8225 4.5 12C4.5 13.1775 4.7776 14.3384 5.31028 15.3886C5.84296 16.4387 6.61572 17.3485 7.56583 18.0441L8.15083 21.2672C8.21343 21.613 8.39545 21.9258 8.66513 22.1511C8.93482 22.3764 9.27504 22.4999 9.62646 22.5H14.374C14.7254 22.4999 15.0656 22.3764 15.3353 22.1511C15.605 21.9258 15.787 21.613 15.8496 21.2672L16.4346 18.0441C17.3844 17.3483 18.157 16.4384 18.6896 15.3883C19.2222 14.3383 19.4999 13.1774 19.5002 12ZM9.62646 3H14.374L14.7405 5.02031C12.9795 4.32659 11.0209 4.32659 9.2599 5.02031L9.62646 3ZM6.00021 12C6.00021 10.8133 6.3521 9.65327 7.01139 8.66658C7.67068 7.67988 8.60775 6.91085 9.70411 6.45672C10.8005 6.0026 12.0069 5.88378 13.1708 6.11529C14.3346 6.3468 15.4037 6.91824 16.2429 7.75736C17.082 8.59647 17.6534 9.66557 17.8849 10.8295C18.1164 11.9933 17.9976 13.1997 17.5435 14.2961C17.0894 15.3925 16.3203 16.3295 15.3336 16.9888C14.3469 17.6481 13.1869 18 12.0002 18C10.4094 17.9983 8.88433 17.3656 7.75949 16.2407C6.63465 15.1159 6.00195 13.5908 6.00021 12ZM14.374 21H9.62646L9.2599 18.9797C11.0209 19.6734 12.9795 19.6734 14.7405 18.9797L14.374 21ZM11.2502 12V8.25C11.2502 8.05109 11.3292 7.86032 11.4699 7.71967C11.6105 7.57902 11.8013 7.5 12.0002 7.5C12.1991 7.5 12.3899 7.57902 12.5305 7.71967C12.6712 7.86032 12.7502 8.05109 12.7502 8.25V11.25H15.7502C15.9491 11.25 16.1399 11.329 16.2805 11.4697C16.4212 11.6103 16.5002 11.8011 16.5002 12C16.5002 12.1989 16.4212 12.3897 16.2805 12.5303C16.1399 12.671 15.9491 12.75 15.7502 12.75H12.0002C11.8013 12.75 11.6105 12.671 11.4699 12.5303C11.3292 12.3897 11.2502 12.1989 11.2502 12Z" fill="#0a0a0a"/>
</svg>
